<?xml version="1.0" encoding="UTF-8"?><svg width="145px" height="40px" viewBox="0 0 145 40" version="1.1" xmlns="http://www.w3.org/2000/svg" xmlns:xlink="http://www.w3.org/1999/xlink"><defs><linearGradient x1="61.5370404%" y1="13%" x2="34.2376801%" y2="129.365079%" id="linearGradient-1"><stop stop-color="#EF7829" offset="0%"/><stop stop-color="#F0692A" offset="28%"/><stop stop-color="#F15E2C" offset="63%"/><stop stop-color="#F15A2C" offset="100%"/></linearGradient></defs><g id="Symbols" stroke="none" stroke-width="1" fill="none" fill-rule="evenodd"><g id="Blocks/Header_Unlogged" transform="translate(-15.000000, -15.000000)"><g id="icons/boosty_logo" transform="translate(15.000000, 15.000000)"><g id="Shape"><path d="M138.119363,13.14856 L132.002653,22.63144 L131.397878,13.14856 L122.575597,13.14856 C123.384615,10.366 124.037135,8.13256 124.037135,8.13256 L124.381963,7.01848 L117.6313,7.01848 L117.312997,8.13256 L115.851459,13.14856 L108.660477,13.14856 C102.750663,13.14856 99.4244032,14.8276 98.0503979,18.00352 C97.2546419,15.09952 94.6206897,13.14856 90.5782493,13.14856 C87.2902077,13.135208 84.1128672,14.3300173 81.6551724,16.504 C80.464191,14.45536 78.1061008,13.1512 74.8116711,13.1512 C71.2975199,13.1360778 67.9189855,14.5000837 65.4084881,16.94752 C64.3103448,14.656 61.8541114,13.14856 58.3262599,13.14856 C57.1586378,13.1510938 55.9961737,13.302814 54.867374,13.6 L55.397878,11.77312 C55.4066092,11.7439195 55.4181572,11.7156279 55.4323607,11.68864 L56.7904509,7 L50.066313,7 L45.7798408,21.73384 C45.668435,22.02952 45.5676393,22.32784 45.4801061,22.63144 C45.2902336,23.2752559 45.1623364,23.9355911 45.0981432,24.60352 C44.5384615,28.714 46.3474801,31.816 51.3660477,32.0272 C51.8475451,32.0843575 52.332067,32.1125687 52.8169761,32.11168 C56.2925823,32.0722669 59.6211655,30.7100879 62.1193634,28.3048 C63.1564987,30.6148 65.5676393,32.11168 69.2970822,32.11168 C72.5436452,32.0790306 75.6705362,30.8873894 78.1087533,28.7536 C79.2493369,30.80488 81.5862069,32.11168 85.061008,32.11168 L101.917772,32.11168 C107.143236,32.11168 110.095491,31.08472 111.6313,28.85392 C111.6313,30.98176 112.851459,32.11168 115.941645,32.11168 C118.437666,32.11168 121.777188,31.5652 126.366048,30.43792 L119.687003,39.9208 L126.411141,39.9208 L144.846154,13.14856 L138.119363,13.14856 Z M58.9310345,22.63144 C58.3023873,24.79096 56.2785146,26.53336 54.4217507,26.53336 C52.5649867,26.53336 51.5676393,24.79096 52.1962865,22.63144 C52.8249337,20.47192 54.8488064,18.72688 56.6923077,18.72688 C58.535809,18.72688 59.5596817,20.464 58.9310345,22.63144 Z M75.4164456,22.63144 C74.7877984,24.79096 72.7639257,26.53336 70.9071618,26.53336 C69.0503979,26.53336 68.0769231,24.79096 68.6923077,22.63144 C69.3076923,20.47192 71.3448276,18.72688 73.2015915,18.72688 C75.0583554,18.72688 76.0344828,20.464 75.4164456,22.63144 Z M84.4562334,22.63144 C85.0848806,20.46928 87.1087533,18.72688 88.9522546,18.72688 C90.795756,18.72688 91.8090186,20.46928 91.1803714,22.63144 C90.5517241,24.7936 88.5941645,26.4832 86.7586207,26.536 L86.6074271,26.536 C84.801061,26.4832 83.8355438,24.76192 84.4562334,22.63144 Z M106.127321,25.85752 C105.787798,26.64952 103.132626,26.53072 102.466844,26.54128 L95.928382,26.536 C96.8103436,25.360374 97.4758216,24.0383816 97.8938992,22.63144 C97.9363395,22.48888 97.9734748,22.34896 98.0079576,22.20904 C98.7108753,23.2096 100.201592,24.11248 103.100796,24.68536 C105.864721,25.216 106.3687,25.05496 106.127321,25.85752 Z M112.777188,23.7244 C112.204244,21.49624 109.721485,20.6224 106.241379,20.2 C104.785146,20.02576 103.965517,19.95712 104.148541,19.3288 C104.289125,18.8404 105.018568,18.73744 106.586207,18.73744 L114.230769,18.73744 L112.777188,23.7244 Z M119.496021,23.74552 C119.496021,23.70064 120.151194,21.4804 120.952255,18.72952 L125.217507,18.72952 L125.915119,25.8364 C118.888594,27.328 118.713528,26.92672 119.496021,23.74552 L119.496021,23.74552 Z" fill="#242B2C" fill-rule="nonzero"/><path d="M1.03841146,23.8920635 L7.81508464,0 L18.2158138,0 L16.1119922,7.40740741 C16.0897554,7.44994435 16.0716695,7.49460291 16.0579948,7.54074074 L10.5357227,27.1005291 L15.6903971,27.1005291 C13.537424,32.5848325 11.8524284,36.8846561 10.6354102,40 C1.12771484,39.8920635 -1.53892578,32.9481481 0.795423177,24.7322751 L1.03841146,23.8920635 Z M10.672793,40 L23.2084961,21.6 L17.8897526,21.6 L22.5169141,9.81375661 C30.4586849,10.6603175 34.1824284,17.0285714 31.993457,24.7301587 C29.6424935,33.015873 20.1285677,40 10.8659375,40 L10.672793,40 Z" fill="url(#linearGradient-1)" fill-rule="nonzero"/></g></g></g></g></svg>